# xmcd
#
# Track frame offsets:
#	151
#	41332
#	72591
#	104319
#	133191
#	172340
#	196841
#	224318
#	251537
#	277352
#	306314
#
# Disc length: 4439
#
# Revision: 1
# Processed by: cddbd v1.5.1PL0 Copyright (c) Steve Scherf et al.
# Submitted via: EasyCDDAExtractor 5.0.2.1
# Normalized: r0:DSETVAR1
#
DISCID=b211550b
DTITLE=Various Artist - Best Of( Bootleg)
DYEAR=2000
DGENRE=Oldschool
TTITLE0=S.O.S. Band - Just Be Good To Me
TTITLE1=Tell Me If You Still Care
TTITLE2=No One's Gonna Love You
TTITLE3=Weekend Girl
TTITLE4=Just The Way You Like It
TTITLE5=Barrowed Love
TTITLE6=The Finest
TTITLE7=I Don't Want Nobody else
TTITLE8=S.O.S.
TTITLE9=High Hopes
TTITLE10=Take Your Time (Do It Right)
EXTD=
EXTT0=
EXTT1=
EXTT2=
EXTT3=
EXTT4=
EXTT5=
EXTT6=
EXTT7=
EXTT8=
EXTT9=
EXTT10=
PLAYORDER=
